#N canvas 56 9 1410 714 12;
#X obj 2 4 cnv 20 1400 700 empty empty empty 20 12 0 12 #9f9f9f #404040 0;
#N canvas 387 47 1360 1098 output 0;
#X obj 21 302 cnv 20 704 684 empty empty empty 20 12 0 12 #7c7c7c #404040 0;
#X obj 19 141 netreceive -u -b 5900;
#X obj 19 165 oscparse;
#X obj 19 193 list trim;
#X obj 312 71 loadbang;
#X msg 312 96 1e+06;
#X obj 312 122 s scale-factor;
#X obj 19 218 route ch0 ch1 ch2 ch3 ch4 ch5 ch6 ch7 ch8 ch9 ch10 ch11 ch12 ch13 ch14 ch15 ch16 ch17 ch18 ch19 ch20 ch21 ch22 ch23 ch24, f 120;
#X obj 843 784 dac~ 1 2 3 4 5 6 7 8 9 10 11 12 13 14 15 16 17 18 19 20 21 22 23 24 25, f 71;
#X obj 27 325 generate-cvs;
#X obj 167 325 generate-cvs;
#X obj 307 325 generate-cvs;
#X obj 447 325 generate-cvs;
#X obj 587 325 generate-cvs;
#X text 88 300 I;
#X text 227 300 II;
#X text 368 301 III;
#X text 512 300 IV;
#X text 656 299 V;
#X obj 124 843 synth-simulator;
#X obj 278 1092 dac~;
#X obj 124 699 synth-simulator;
#X obj 124 555 synth-simulator;
#X obj 389 844 synth-simulator;
#X obj 389 700 synth-simulator;
#X msg 457 652 \; pd dsp \$1;
#X text 482 612 DSP on/off;
#X obj 459 611 tgl 20 0 empty empty empty 0 -10 0 12 #fcfcfc #000000 #000000 0 1;
#X text 443 570 Synth simulation;
#X connect 1 0 2 0;
#X connect 2 0 3 0;
#X connect 3 0 7 0;
#X connect 4 0 5 0;
#X connect 5 0 6 0;
#X connect 7 0 9 0;
#X connect 7 1 9 1;
#X connect 7 2 9 2;
#X connect 7 3 9 3;
#X connect 7 4 9 4;
#X connect 7 5 10 0;
#X connect 7 6 10 1;
#X connect 7 7 10 2;
#X connect 7 8 10 3;
#X connect 7 9 10 4;
#X connect 7 10 11 0;
#X connect 7 11 11 1;
#X connect 7 12 11 2;
#X connect 7 13 11 3;
#X connect 7 14 11 4;
#X connect 7 15 12 0;
#X connect 7 16 12 1;
#X connect 7 17 12 2;
#X connect 7 18 12 3;
#X connect 7 19 12 4;
#X connect 7 20 13 0;
#X connect 7 21 13 1;
#X connect 7 22 13 2;
#X connect 7 23 13 3;
#X connect 7 24 13 4;
#X connect 9 0 8 0;
#X connect 9 0 19 0;
#X connect 9 1 8 1;
#X connect 9 1 19 1;
#X connect 9 2 8 2;
#X connect 9 2 19 2;
#X connect 9 3 8 3;
#X connect 9 3 19 3;
#X connect 9 4 8 4;
#X connect 9 4 19 4;
#X connect 10 0 8 5;
#X connect 10 0 21 0;
#X connect 10 1 8 6;
#X connect 10 1 21 1;
#X connect 10 2 8 7;
#X connect 10 2 21 2;
#X connect 10 3 8 8;
#X connect 10 3 21 3;
#X connect 10 4 8 9;
#X connect 10 4 21 4;
#X connect 11 0 8 10;
#X connect 11 0 22 0;
#X connect 11 1 8 11;
#X connect 11 1 22 1;
#X connect 11 2 8 12;
#X connect 11 2 22 2;
#X connect 11 3 8 13;
#X connect 11 3 22 3;
#X connect 11 4 8 14;
#X connect 11 4 22 4;
#X connect 12 0 8 15;
#X connect 12 0 23 0;
#X connect 12 1 8 16;
#X connect 12 1 23 1;
#X connect 12 2 8 17;
#X connect 12 2 23 2;
#X connect 12 3 8 18;
#X connect 12 3 23 3;
#X connect 12 4 8 19;
#X connect 12 4 23 4;
#X connect 13 0 8 20;
#X connect 13 0 24 0;
#X connect 13 1 8 21;
#X connect 13 1 24 1;
#X connect 13 2 8 22;
#X connect 13 2 24 2;
#X connect 13 3 8 23;
#X connect 13 3 24 3;
#X connect 13 4 8 24;
#X connect 13 4 24 4;
#X connect 19 0 20 0;
#X connect 19 1 20 1;
#X connect 21 0 20 0;
#X connect 21 1 20 1;
#X connect 22 0 20 0;
#X connect 22 1 20 1;
#X connect 23 0 20 0;
#X connect 23 1 20 1;
#X connect 24 0 20 0;
#X connect 24 1 20 1;
#X connect 27 0 25 0;
#X coords 0 -1 1 1 710 690 2 20 300;
#X restore 613 4 pd output;
#N canvas 268 50 850 717 input 0;
#X obj 73 202 cnv 20 601 411 empty empty empty 20 12 0 12 #c6feff #404040 0;
#X obj 47 -26 ctlin;
#X obj 26 27 pack 0 0 0;
#X text 168 71 channel (Faderfox setup);
#X text 57 657 controller (Faderfox group);
#X floatatom 18 660 5 0 0 0 - - - 0;
#X obj 19 629 route 0 1 2 3 4 5 6 7 8 9 10 11 12 13 14 15 16 17 18 19;
#X obj 26 70 route 1 2 3 4 5 6 7;
#X symbolatom 410 143 10 0 0 0 - - - 0;
#X obj 79 476 fox-synth-face;
#X symbolatom 493 144 10 0 0 0 - - - 0;
#X symbolatom 578 144 10 0 0 0 - - - 0;
#X symbolatom 664 145 10 0 0 0 - - - 0;
#X symbolatom 748 146 10 0 0 0 - - - 0;
#X obj 80 343 fox-synth-face;
#X obj 80 210 fox-synth-face;
#X obj 373 476 fox-synth-face;
#X obj 373 343 fox-synth-face;
#X text 454 262 Faderfox synth pages;
#X msg 412 99 set moog1;
#X msg 493 100 set moog2;
#X msg 576 98 set moog3;
#X msg 655 98 set moog4;
#X msg 740 98 set moog5;
#X obj 579 43 t b b;
#X obj 443 -32 bng 20 250 50 0 empty empty empty 0 -10 0 12 #fcfcfc #000000 #000000;
#X obj 571 6 loadbang;
#X obj 724 413 offset-index;
#X msg 725 381 \$1 77;
#X obj 728 443 print;
#X floatatom 724 344 5 0 0 0 - - - 0;
#X obj 114 99 offset-index;
#X obj 314 14 loadbang;
#X msg 264 43 -32;
#X msg 219 43 -16;
#X msg 306 44 -48;
#X msg 344 44 -60;
#X obj 132 124 offset-index;
#X obj 150 150 offset-index;
#X obj 175 176 offset-index;
#X connect 1 0 2 2;
#X connect 1 1 2 1;
#X connect 1 2 2 0;
#X connect 2 0 7 0;
#X connect 6 0 5 0;
#X connect 7 0 6 0;
#X connect 7 1 9 0;
#X connect 7 1 31 0;
#X connect 7 1 37 0;
#X connect 7 1 38 0;
#X connect 7 1 39 0;
#X connect 8 0 9 1;
#X connect 10 0 14 1;
#X connect 11 0 15 1;
#X connect 12 0 16 1;
#X connect 13 0 17 1;
#X connect 19 0 8 0;
#X connect 20 0 10 0;
#X connect 21 0 11 0;
#X connect 22 0 12 0;
#X connect 23 0 13 0;
#X connect 24 0 13 0;
#X connect 24 0 12 0;
#X connect 24 0 11 0;
#X connect 24 0 10 0;
#X connect 24 0 8 0;
#X connect 24 1 23 0;
#X connect 24 1 22 0;
#X connect 24 1 21 0;
#X connect 24 1 20 0;
#X connect 24 1 19 0;
#X connect 25 0 24 0;
#X connect 25 0 34 0;
#X connect 25 0 33 0;
#X connect 25 0 35 0;
#X connect 25 0 36 0;
#X connect 26 0 24 0;
#X connect 27 0 29 0;
#X connect 28 0 27 0;
#X connect 30 0 28 0;
#X connect 31 0 14 0;
#X connect 32 0 34 0;
#X connect 32 0 33 0;
#X connect 32 0 35 0;
#X connect 32 0 36 0;
#X connect 33 0 37 1;
#X connect 34 0 31 1;
#X connect 35 0 38 1;
#X connect 36 0 39 1;
#X connect 37 0 15 0;
#X connect 38 0 16 0;
#X connect 39 0 16 0;
#X coords 0 -1 1 1 605 415 2 70 200;
#X restore 4 4 pd input;
#N canvas 1 899 450 300 osc-handling 0;
#X obj 11 129 netsend -u -b;
#X msg 260 91 disconnect;
#X msg 88 90 connect 127.0.0.1 5800;
#X obj 11 90 r oscout;
#X obj 88 62 loadbang;
#X obj 163 18 bng 20 250 50 0 empty empty empty 0 -10 0 12 #fcfcfc #000000 #000000;
#X connect 1 0 0 0;
#X connect 2 0 0 0;
#X connect 3 0 0 0;
#X connect 4 0 2 0;
#X connect 5 0 2 0;
#X restore 6 426 pd osc-handling;
