#N canvas 881 589 616 561 12;
#X obj 77 15 loadbang;
#X msg 77 40 2;
#X obj 163 46 * 12;
#X obj 163 17 inlet;
#X obj 12 14 inlet~;
#X obj 12 40 *~ 10;
#X obj 14 96 pow~;
#X obj 77 65 sig~;
#X obj 14 127 *~ 12;
#X obj 14 157 outlet~;
#X connect 0 0 1 0;
#X connect 1 0 7 0;
#X connect 2 0 8 1;
#X connect 3 0 2 0;
#X connect 4 0 5 0;
#X connect 5 0 6 1;
#X connect 6 0 8 0;
#X connect 7 0 6 0;
#X connect 8 0 9 0;
