#N canvas 568 103 1160 681 12;
#X obj 112 277 cnv 20 286 126 empty empty empty 20 12 0 12 #ffc7c6 #404040 0;
#X obj 11 8 inlet;
#X obj 16 50 route 0 1 2 3 4 5 6 7, f 61;
#X obj 16 87 - 64;
#X obj 19 165 +;
#X floatatom 61 165 19 0 0 0 - - - 0;
#X obj 16 112 * 1000;
#X obj 66 87 - 64;
#X obj 66 112 * 100;
#X obj 110 87 - 64;
#X obj 110 112 * 10;
#X obj 146 87 - 64;
#X obj 146 112 * 1;
#X obj 617 634 s oscout;
#X obj 122 285 hsl 170 20 0 127 0 0 empty empty empty -2 -10 0 12 #fcfcfc #000000 #000000 0 1;
#X obj 122 307 hsl 170 20 0 127 0 0 empty empty empty -2 -10 0 12 #fcfcfc #000000 #000000 0 1;
#X obj 122 329 hsl 170 20 0 127 0 0 empty empty empty -2 -10 0 12 #fcfcfc #000000 #000000 0 1;
#X obj 122 351 hsl 170 20 0 127 0 0 empty empty empty -2 -10 0 12 #fcfcfc #000000 #000000 0 1;
#X obj 119 373 tgl 20 0 empty empty empty 0 -10 0 12 #fcfcfc #000000 #000000 0 1;
#X text 142 374 gate;
#X text 298 351 VCA;
#X text 298 329 VCF Resonance;
#X text 298 306 VCF Cutoff;
#X text 297 284 VCO Frequency;
#X obj 10 452 oscformat -f i fox synth1 vco;
#X obj 67 196 int-to-midi;
#X msg 67 224 set \$1;
#X obj 30 424 midi-to-int;
#X obj 223 425 midi-to-int;
#X obj 443 452 oscformat -f i fox synth1 vcfr;
#X obj 443 422 midi-to-int;
#X msg 649 194 set fox \$1 vcfr;
#X symbolatom 732 100 10 0 0 0 - - - 0;
#X obj 732 24 inlet;
#X msg 540 138 set fox \$1 vco;
#X obj 664 421 midi-to-int;
#X msg 707 221 set fox \$1 vca;
#X obj 664 451 oscformat -f i fox synth1 vca;
#X msg 595 167 set fox \$1 vcfc;
#X obj 223 453 oscformat -f i fox synth1 vcfc;
#X msg 757 248 set fox \$1 gate;
#X msg 355 173 set \$1;
#X symbolatom 221 376 10 0 0 0 - - - 0;
#X obj 877 452 oscformat -f i fox synth1 gate;
#X obj 876 422 toggle-to-int;
#X connect 1 0 2 0;
#X connect 2 0 3 0;
#X connect 2 1 7 0;
#X connect 2 2 9 0;
#X connect 2 3 11 0;
#X connect 2 4 15 0;
#X connect 2 5 16 0;
#X connect 2 6 17 0;
#X connect 2 7 18 0;
#X connect 3 0 6 0;
#X connect 4 0 5 0;
#X connect 5 0 4 1;
#X connect 5 0 24 0;
#X connect 5 0 25 0;
#X connect 6 0 4 0;
#X connect 7 0 8 0;
#X connect 8 0 4 0;
#X connect 9 0 10 0;
#X connect 10 0 4 0;
#X connect 11 0 12 0;
#X connect 12 0 4 0;
#X connect 14 0 27 0;
#X connect 15 0 28 0;
#X connect 16 0 30 0;
#X connect 17 0 35 0;
#X connect 18 0 44 0;
#X connect 24 0 13 0;
#X connect 25 0 26 0;
#X connect 26 0 14 0;
#X connect 27 0 24 0;
#X connect 28 0 39 0;
#X connect 29 0 13 0;
#X connect 30 0 29 0;
#X connect 31 0 29 0;
#X connect 32 0 31 0;
#X connect 32 0 38 0;
#X connect 32 0 34 0;
#X connect 32 0 36 0;
#X connect 32 0 40 0;
#X connect 32 0 41 0;
#X connect 33 0 32 0;
#X connect 34 0 24 0;
#X connect 35 0 37 0;
#X connect 36 0 37 0;
#X connect 37 0 13 0;
#X connect 38 0 39 0;
#X connect 39 0 13 0;
#X connect 40 0 43 0;
#X connect 41 0 42 0;
#X connect 43 0 13 0;
#X connect 44 0 43 0;
#X coords 0 -1 1 1 290 130 2 110 275;
