#N canvas 110 59 1032 667 12;
#X obj 320 192 cnv 20 135 191 empty empty empty 20 12 0 12 #ffe3c6 #404040 0;
#X obj 102 104 int-to-unit;
#X obj 11 104 int-to-midi;
#X obj 11 16 inlet;
#X obj 332 203 vsl 20 170 0 127 0 0 empty empty empty 0 -9 0 12 #fcfcfc #000000 #000000 0 1;
#X obj 102 552 sig~;
#X obj 11 448 midi-to-unit;
#X floatatom 102 528 22 0 0 0 - - - 0;
#X msg 11 127 set \$1;
#X obj 102 598 outlet~;
#X obj 286 104 int-to-unit;
#X obj 195 104 int-to-midi;
#X obj 195 16 inlet;
#X obj 355 203 vsl 20 170 0 127 0 0 empty empty empty 0 -9 0 12 #fcfcfc #000000 #000000 0 1;
#X obj 286 552 sig~;
#X obj 195 448 midi-to-unit;
#X floatatom 286 528 22 0 0 0 - - - 0;
#X msg 195 127 set \$1;
#X obj 286 598 outlet~;
#X obj 469 104 int-to-unit;
#X obj 378 104 int-to-midi;
#X obj 378 16 inlet;
#X obj 378 203 vsl 20 170 0 127 0 0 empty empty empty 0 -9 0 12 #fcfcfc #000000 #000000 0 1;
#X obj 469 552 sig~;
#X obj 378 448 midi-to-unit;
#X floatatom 469 528 22 0 0 0 - - - 0;
#X msg 378 127 set \$1;
#X obj 469 598 outlet~;
#X obj 653 104 int-to-unit;
#X obj 562 104 int-to-midi;
#X obj 562 16 inlet;
#X obj 401 203 vsl 20 170 0 127 0 0 empty empty empty 0 -9 0 12 #fcfcfc #000000 #000000 0 1;
#X obj 653 552 sig~;
#X obj 562 448 midi-to-unit;
#X floatatom 653 528 22 0 0 0 - - - 0;
#X msg 562 127 set \$1;
#X obj 653 598 outlet~;
#X obj 842 104 int-to-unit;
#X obj 751 104 int-to-midi;
#X obj 751 16 inlet;
#X obj 424 203 vsl 20 170 0 127 0 0 empty empty empty 0 -9 0 12 #fcfcfc #000000 #000000 0 1;
#X obj 842 552 sig~;
#X obj 751 448 midi-to-unit;
#X floatatom 842 528 22 0 0 0 - - - 0;
#X msg 751 127 set \$1;
#X obj 842 598 outlet~;
#X connect 1 0 7 0;
#X connect 2 0 8 0;
#X connect 3 0 1 0;
#X connect 3 0 2 0;
#X connect 4 0 6 0;
#X connect 5 0 9 0;
#X connect 6 0 7 0;
#X connect 7 0 5 0;
#X connect 8 0 4 0;
#X connect 10 0 16 0;
#X connect 11 0 17 0;
#X connect 12 0 10 0;
#X connect 12 0 11 0;
#X connect 13 0 15 0;
#X connect 14 0 18 0;
#X connect 15 0 16 0;
#X connect 16 0 14 0;
#X connect 17 0 13 0;
#X connect 19 0 25 0;
#X connect 20 0 26 0;
#X connect 21 0 19 0;
#X connect 21 0 20 0;
#X connect 22 0 24 0;
#X connect 23 0 27 0;
#X connect 24 0 25 0;
#X connect 25 0 23 0;
#X connect 26 0 22 0;
#X connect 28 0 34 0;
#X connect 29 0 35 0;
#X connect 30 0 28 0;
#X connect 30 0 29 0;
#X connect 31 0 33 0;
#X connect 32 0 36 0;
#X connect 33 0 34 0;
#X connect 34 0 32 0;
#X connect 35 0 31 0;
#X connect 37 0 43 0;
#X connect 38 0 44 0;
#X connect 39 0 37 0;
#X connect 39 0 38 0;
#X connect 40 0 42 0;
#X connect 41 0 45 0;
#X connect 42 0 43 0;
#X connect 43 0 41 0;
#X connect 44 0 40 0;
#X coords 0 -1 1 1 135 195 2 320 190;
