#N canvas 1469 252 450 300 12;
#X obj 15 14 inlet;
#X obj 16 49 / 127;
#X obj 13 85 * 1e+06, f 9;
#X obj 64 13 r factor-int-to-unit;
#X obj 13 122 outlet;
#X connect 0 0 1 0;
#X connect 1 0 2 0;
#X connect 2 0 4 0;
#X connect 3 0 2 1;
