#N canvas 753 997 528 442 12;
#X obj 21 24 inlet;
#X obj 19 155 >= 0;
#X obj 114 282 pack;
#X obj 113 312 outlet;
#X obj 20 61 unpack f f;
#X floatatom 97 250 5 0 0 0 - - - 0;
#X obj 20 123 t f f;
#X obj 19 188 sel 1;
#X obj 22 220 bng 20 250 50 0 empty empty empty 0 -10 0 12 #fcfcfc #000000 #000000;
#X msg 70 189 set \$1;
#X obj 143 25 inlet;
#X obj 20 97 + 0;
#X connect 0 0 4 0;
#X connect 1 0 7 0;
#X connect 2 0 3 0;
#X connect 4 0 11 0;
#X connect 4 1 2 1;
#X connect 5 0 2 0;
#X connect 6 0 1 0;
#X connect 6 1 9 0;
#X connect 7 0 8 0;
#X connect 8 0 5 0;
#X connect 9 0 5 0;
#X connect 10 0 11 1;
#X connect 11 0 6 0;
