#N canvas 350 125 1027 879 12;
#X obj 29 582 cnv 20 256 136 empty empty empty 20 12 0 12 #c6ffc7 #404040 0;
#X obj 312 886 outlet~;
#X obj 53 219 phasor~;
#X obj 53 164 cv-to-freq;
#X obj 613 24 inlet;
#X obj 122 278 bob~;
#X obj 135 164 cv-to-freq;
#X obj 219 164 cv-to-resonance;
#X obj 296 344 *~;
#X obj 715 23 inlet;
#X text 44 3 vco freq;
#X text 120 3 vcf cutoff;
#X text 204 2 vcf resonance;
#X text 346 3 vca;
#X text 522 2 gate;
#X text 594 2 vco spread;
#X text 685 2 cutoff spread;
#X obj 53 26 inlet~;
#X obj 135 26 inlet~;
#X obj 219 26 inlet~;
#X obj 339 26 inlet~;
#X obj 312 378 *~;
#X obj 522 26 inlet~;
#X obj -95 295 metro 300;
#X obj -95 262 tgl 20 0 empty empty empty 0 -10 0 12 #fcfcfc #000000 #000000 0 1;
#X obj -102 495 snapshot~;
#X obj -28 496 snapshot~;
#X obj 47 495 snapshot~;
#X obj 118 494 snapshot~;
#X obj 189 494 snapshot~;
#X floatatom 34 587 10 0 0 1 Hz - - 0;
#X floatatom 34 608 10 0 0 1 Hz - - 0;
#X floatatom 34 629 10 0 0 0 - - - 0;
#X floatatom 34 650 10 0 0 0 - - - 0;
#X floatatom 34 671 10 0 0 0 - - - 0;
#X text 128 587 VCO frequency;
#X text 128 628 VCF resonance;
#X text 128 608 VCF cutoff frequency;
#X text 128 650 VCA;
#X text 127 671 Gate;
#X obj -95 199 loadbang;
#X msg -95 230 1;
#X obj 37 693 hsl 170 20 0 1 0 0 empty empty empty -2 -10 0 12 #fcfcfc #000000 #000000 0 1;
#X obj 312 851 *~;
#X obj 381 851 *~;
#X obj 415 806 -, f 5;
#X msg 415 779 1;
#X obj 415 745 t b f;
#X obj 380 886 outlet~;
#X text 218 692 Pan;
#X obj 433 561 loadbang;
#X msg 432 590 0.5;
#X connect 2 0 5 0;
#X connect 3 0 2 0;
#X connect 3 0 25 0;
#X connect 4 0 3 1;
#X connect 5 0 8 0;
#X connect 6 0 5 1;
#X connect 6 0 26 0;
#X connect 7 0 5 2;
#X connect 7 0 27 0;
#X connect 8 0 21 0;
#X connect 9 0 6 1;
#X connect 17 0 3 0;
#X connect 18 0 6 0;
#X connect 19 0 7 0;
#X connect 20 0 8 1;
#X connect 20 0 28 0;
#X connect 21 0 43 0;
#X connect 21 0 44 0;
#X connect 22 0 21 1;
#X connect 22 0 29 0;
#X connect 23 0 25 0;
#X connect 23 0 26 0;
#X connect 23 0 27 0;
#X connect 23 0 28 0;
#X connect 23 0 29 0;
#X connect 24 0 23 0;
#X connect 25 0 30 0;
#X connect 26 0 31 0;
#X connect 27 0 32 0;
#X connect 28 0 33 0;
#X connect 29 0 34 0;
#X connect 40 0 41 0;
#X connect 41 0 24 0;
#X connect 42 0 47 0;
#X connect 42 0 44 1;
#X connect 43 0 1 0;
#X connect 44 0 48 0;
#X connect 45 0 43 1;
#X connect 46 0 45 0;
#X connect 47 0 46 0;
#X connect 47 1 45 1;
#X connect 50 0 51 0;
#X connect 51 0 42 0;
#X coords 0 -1 1 1 260 140 2 27 580;
