#N canvas 924 47 836 503 12;
#X obj 108 28 inlet~;
#X obj 17 22 loadbang;
#X obj 19 56 metro 10;
#X obj 103 97 snapshot~;
#X obj 104 132 + 1;
#X obj 106 193 outlet;
#X obj 106 160 * 4;
#X connect 0 0 3 0;
#X connect 1 0 2 0;
#X connect 2 0 3 0;
#X connect 3 0 4 0;
#X connect 4 0 6 0;
#X connect 6 0 5 0;
