#N canvas 164 381 789 552 12;
#X text 165 8 Audio signal (range -1 to 1);
#X obj 111 7 inlet~;
#X obj 102 73 snapshot~;
#X obj 12 7 loadbang;
#X obj 75 6 bng 20 250 50 0 empty empty empty 0 -10 0 12 #fcfcfc #000000 #000000;
#X obj 102 103 * 5;
#X obj 102 133 + 5;
#X obj 25 92 loadbang;
#X msg 25 118 2;
#X obj 96 189 pow 0;
#X obj 93 253 outlet;
#X obj 99 162 t b f;
#X obj 95 221 * 2;
#X obj 12 37 metro 10;
#X connect 1 0 2 0;
#X connect 2 0 5 0;
#X connect 3 0 13 0;
#X connect 4 0 13 0;
#X connect 5 0 6 0;
#X connect 6 0 11 0;
#X connect 7 0 8 0;
#X connect 8 0 9 0;
#X connect 9 0 12 0;
#X connect 11 0 9 0;
#X connect 11 1 9 1;
#X connect 12 0 10 0;
#X connect 13 0 2 0;
