#N canvas 0 0 1278 1385 12;
#X obj 24 49 oscparse;
#X obj 24 15 netreceive -u -b 5800;
#X obj 24 108 route arcimoog;
#X obj 24 79 list trim;
#X obj 24 137 route 0 1 2 3 4 5 6 7 8 9 10 11 12 13 14 15;
#X floatatom 181 189 5 0 0 0 - - - 0;
#X obj 223 188 hsl 170 20 -1 1 0 0 empty empty empty -2 -10 0 12 #fcfcfc #000000 #000000 0 1;
#X obj 307 622 dac~ 0 1 2 3 4 5 6 7 8 9 10 11 12 13 14 15;
#X obj 401 188 vline~;
#X floatatom 181 212 5 0 0 0 - - - 0;
#X obj 223 211 hsl 170 20 -1 1 0 0 empty empty empty -2 -10 0 12 #fcfcfc #000000 #000000 0 1;
#X obj 400 215 vline~;
#X floatatom 181 235 5 0 0 0 - - - 0;
#X obj 223 234 hsl 170 20 -1 1 0 0 empty empty empty -2 -10 0 12 #fcfcfc #000000 #000000 0 1;
#X obj 400 241 vline~;
#X floatatom 181 258 5 0 0 0 - - - 0;
#X obj 223 257 hsl 170 20 -1 1 0 0 empty empty empty -2 -10 0 12 #fcfcfc #000000 #000000 0 1;
#X obj 398 266 vline~;
#X floatatom 181 281 5 0 0 0 - - - 0;
#X obj 223 280 hsl 170 20 -1 1 0 0 empty empty empty -2 -10 0 12 #fcfcfc #000000 #000000 0 1;
#X obj 398 292 vline~;
#X floatatom 181 304 5 0 0 0 - - - 0;
#X obj 223 303 hsl 170 20 -1 1 0 0 empty empty empty -2 -10 0 12 #fcfcfc #000000 #000000 0 1;
#X obj 399 317 vline~;
#X floatatom 181 327 5 0 0 0 - - - 0;
#X obj 223 326 hsl 170 20 -1 1 0 0 empty empty empty -2 -10 0 12 #fcfcfc #000000 #000000 0 1;
#X obj 399 343 vline~;
#X floatatom 181 350 5 0 0 0 - - - 0;
#X obj 223 349 hsl 170 20 -1 1 0 0 empty empty empty -2 -10 0 12 #fcfcfc #000000 #000000 0 1;
#X obj 399 368 vline~;
#X floatatom 181 372 5 0 0 0 - - - 0;
#X obj 223 371 hsl 170 20 -1 1 0 0 empty empty empty -2 -10 0 12 #fcfcfc #000000 #000000 0 1;
#X obj 400 394 vline~;
#X floatatom 180 422 5 0 0 0 - - - 0;
#X obj 224 421 hsl 170 20 -1 1 0 0 empty empty empty -2 -10 0 12 #fcfcfc #000000 #000000 0 1;
#X obj 400 421 vline~;
#X floatatom 181 447 5 0 0 0 - - - 0;
#X obj 225 446 hsl 170 20 -1 1 0 0 empty empty empty -2 -10 0 12 #fcfcfc #000000 #000000 0 1;
#X obj 401 446 vline~;
#X floatatom 179 472 5 0 0 0 - - - 0;
#X obj 223 471 hsl 170 20 -1 1 0 0 empty empty empty -2 -10 0 12 #fcfcfc #000000 #000000 0 1;
#X obj 399 471 vline~;
#X floatatom 178 498 5 0 0 0 - - - 0;
#X obj 222 497 hsl 170 20 -1 1 0 0 empty empty empty -2 -10 0 12 #fcfcfc #000000 #000000 0 1;
#X obj 398 497 vline~;
#X floatatom 177 524 5 0 0 0 - - - 0;
#X obj 221 523 hsl 170 20 -1 1 0 0 empty empty empty -2 -10 0 12 #fcfcfc #000000 #000000 0 1;
#X obj 397 523 vline~;
#X floatatom 179 549 5 0 0 0 - - - 0;
#X obj 223 548 hsl 170 20 -1 1 0 0 empty empty empty -2 -10 0 12 #fcfcfc #000000 #000000 0 1;
#X obj 399 548 vline~;
#X floatatom 178 575 5 0 0 0 - - - 0;
#X obj 222 574 hsl 170 20 -1 1 0 0 empty empty empty -2 -10 0 12 #fcfcfc #000000 #000000 0 1;
#X obj 398 574 vline~;
#X text 162 187 0;
#X text 163 214 0;
#X text 164 238 0;
#X text 166 264 0;
#X obj 396 101 print debug;
#X connect 0 0 3 0;
#X connect 1 0 0 0;
#X connect 2 0 4 0;
#X connect 3 0 2 0;
#X connect 3 0 58 0;
#X connect 4 0 5 0;
#X connect 4 1 9 0;
#X connect 4 2 12 0;
#X connect 4 3 15 0;
#X connect 4 4 18 0;
#X connect 4 5 21 0;
#X connect 4 6 24 0;
#X connect 4 7 27 0;
#X connect 4 8 30 0;
#X connect 4 9 33 0;
#X connect 4 10 36 0;
#X connect 4 11 39 0;
#X connect 4 12 42 0;
#X connect 4 13 45 0;
#X connect 4 14 48 0;
#X connect 4 15 51 0;
#X connect 5 0 6 0;
#X connect 6 0 8 0;
#X connect 8 0 7 0;
#X connect 9 0 10 0;
#X connect 10 0 11 0;
#X connect 11 0 7 1;
#X connect 12 0 13 0;
#X connect 13 0 14 0;
#X connect 14 0 7 2;
#X connect 15 0 16 0;
#X connect 16 0 17 0;
#X connect 17 0 7 3;
#X connect 18 0 19 0;
#X connect 19 0 20 0;
#X connect 20 0 7 4;
#X connect 21 0 22 0;
#X connect 22 0 23 0;
#X connect 23 0 7 5;
#X connect 24 0 25 0;
#X connect 25 0 26 0;
#X connect 26 0 7 6;
#X connect 27 0 28 0;
#X connect 28 0 29 0;
#X connect 29 0 7 7;
#X connect 30 0 31 0;
#X connect 31 0 32 0;
#X connect 32 0 7 8;
#X connect 33 0 34 0;
#X connect 34 0 35 0;
#X connect 35 0 7 9;
#X connect 36 0 37 0;
#X connect 37 0 38 0;
#X connect 38 0 7 10;
#X connect 39 0 40 0;
#X connect 40 0 41 0;
#X connect 41 0 7 11;
#X connect 42 0 43 0;
#X connect 43 0 44 0;
#X connect 44 0 7 12;
#X connect 45 0 46 0;
#X connect 46 0 47 0;
#X connect 47 0 7 13;
#X connect 48 0 49 0;
#X connect 49 0 50 0;
#X connect 50 0 7 14;
#X connect 51 0 52 0;
#X connect 52 0 53 0;
#X connect 53 0 7 15;
