#N canvas 156 53 1525 1010 12;
#X obj 220 312 bob~;
#X obj 207 199 min~;
#X obj 261 185 -~ 1;
#X obj 261 210 *~ -50;
#X obj 207 152 phasor~ 220;
#X obj 207 224 -~ 0.5;
#X obj 207 252 *~ 2;
#X floatatom 55 71 5 0 0 0 - - - 0;
#X obj 49 44 audio-to-freq;
#X obj 222 45 audio-to-cutoff;
#X floatatom 223 78 5 0 0 0 - - - 0;
#X obj 378 59 audio-to-resonance;
#X obj 540 54 audio-to-vca;
#X obj 241 360 *~;
#X obj 653 54 audio-to-gate;
#X obj 246 396 *~;
#X obj 47 15 inlet~;
#X obj 222 12 inlet~;
#X obj 377 25 inlet~;
#X obj 544 16 inlet~;
#X obj 657 16 inlet~;
#X obj 246 438 outlet~;
#X connect 0 0 13 1;
#X connect 1 0 5 0;
#X connect 2 0 3 0;
#X connect 3 0 1 1;
#X connect 4 0 1 0;
#X connect 4 0 2 0;
#X connect 5 0 6 0;
#X connect 6 0 0 0;
#X connect 7 0 4 0;
#X connect 8 0 7 0;
#X connect 9 0 10 0;
#X connect 10 0 0 1;
#X connect 11 0 0 2;
#X connect 12 0 13 0;
#X connect 13 0 15 1;
#X connect 14 0 15 0;
#X connect 15 0 21 0;
#X connect 16 0 8 0;
#X connect 17 0 9 0;
#X connect 18 0 11 0;
#X connect 19 0 12 0;
#X connect 20 0 14 0;
