#N canvas 2050 739 450 300 12;
#X obj 172 68 inlet~;
#X obj 169 213 outlet~;
#X obj 119 150 pow~;
#X obj 61 27 loadbang;
#X msg 61 58 2;
#X obj 230 125 snapshot~;
#X floatatom 229 163 5 0 0 0 - - - 0;
#X obj 115 183 *~ 16;
#X obj 138 109 +~ 5;
#X connect 0 0 5 0;
#X connect 0 0 8 0;
#X connect 2 0 7 0;
#X connect 3 0 4 0;
#X connect 4 0 2 0;
#X connect 5 0 6 0;
#X connect 7 0 1 0;
#X connect 8 0 2 1;
