#N canvas 2546 746 450 300 12;
#X obj 110 51 inlet~;
#X obj 110 185 outlet~;
#X obj 110 83 +~ 5;
#X obj 110 111 /~ 10;
#X obj 109 138 *~ 8;
#X connect 0 0 2 0;
#X connect 2 0 3 0;
#X connect 3 0 4 0;
#X connect 4 0 1 0;
