#N canvas 2935 48 671 1071 12;
#X obj 417 714 bob~;
#X obj 139 644 phasor~;
#X floatatom 157 522 5 0 0 0 - - - 0;
#X obj 158 572 line~;
#X obj 325 326 hsl 153 18 -5 5 0 0 empty empty empty -2 -10 0 12 #fcfcfc #000000 #000000 0 1;
#X obj 314 1031 dac~ 1 2;
#X obj 158 546 pack f 50;
#X obj 325 389 hsl 153 18 -5 5 0 0 empty empty empty -2 -9 0 12 #fcfcfc #000000 #000000 0 1;
#X obj 159 810 line~;
#X obj 161 778 pack f 50;
#X obj 141 839 *~;
#X obj 325 347 hsl 153 18 -5 5 0 0 empty empty empty -2 -9 0 12 #fcfcfc #000000 #000000 0 1;
#X floatatom 370 520 5 0 0 0 - - - 0;
#X obj 368 549 pack f 50;
#X obj 364 582 line~;
#X obj 358 616 cv-to-freq;
#X obj 153 603 cv-to-freq;
#X obj 325 368 hsl 153 18 -5 5 0 0 empty empty empty -2 -9 0 12 #fcfcfc #000000 #000000 0 1;
#X floatatom 560 525 5 0 0 0 - - - 0;
#X obj 558 554 pack f 50;
#X obj 554 587 line~;
#X obj 548 621 cv-to-res;
#X obj 325 410 hsl 153 18 -5 5 0 0 empty empty empty -2 -9 0 12 #fcfcfc #000000 #000000 0 1;
#X obj 450 942 *~;
#X obj 330 924 -;
#X obj 313 828 loadbang;
#X msg 312 855 1;
#X obj 311 996 *~;
#X obj 361 887 t b f;
#X obj 223 338 loadbang;
#X msg 220 364 0.5;
#X obj 159 312 loadbang;
#X msg 161 338 0.6;
#X obj 220 259 loadbang;
#X msg 221 285 0;
#X obj 362 242 loadbang;
#X msg 364 270 0;
#X obj 562 253 loadbang;
#X msg 567 284 0;
#X obj 278 134 inlet;
#X obj 386 135 inlet;
#X obj 451 138 inlet;
#X obj 515 131 inlet;
#X obj 597 139 inlet;
#X text 483 326 VCO;
#X text 483 346 VCF;
#X text 483 367 Res;
#X text 483 388 VCA;
#X text 483 409 Pan;
#X obj 330 946 pack f 50;
#X obj 330 969 line~;
#X obj 469 889 pack f 50;
#X obj 469 912 line~;
#X obj 378 804 + 5;
#X obj 378 826 / 10;
#X obj 161 724 + 5;
#X obj 161 750 / 10;
#X connect 0 0 10 0;
#X connect 1 0 0 0;
#X connect 2 0 6 0;
#X connect 3 0 16 0;
#X connect 4 0 2 0;
#X connect 6 0 3 0;
#X connect 7 0 55 0;
#X connect 8 0 10 1;
#X connect 9 0 8 0;
#X connect 10 0 23 0;
#X connect 10 0 27 0;
#X connect 11 0 12 0;
#X connect 12 0 13 0;
#X connect 13 0 14 0;
#X connect 14 0 15 0;
#X connect 15 0 0 1;
#X connect 16 0 1 0;
#X connect 17 0 18 0;
#X connect 18 0 19 0;
#X connect 19 0 20 0;
#X connect 20 0 21 0;
#X connect 21 0 0 2;
#X connect 22 0 53 0;
#X connect 23 0 5 1;
#X connect 24 0 49 0;
#X connect 25 0 26 0;
#X connect 26 0 24 0;
#X connect 27 0 5 0;
#X connect 28 0 24 0;
#X connect 28 1 24 1;
#X connect 29 0 30 0;
#X connect 30 0 22 0;
#X connect 31 0 32 0;
#X connect 32 0 7 0;
#X connect 33 0 34 0;
#X connect 34 0 4 0;
#X connect 35 0 36 0;
#X connect 36 0 11 0;
#X connect 37 0 38 0;
#X connect 38 0 17 0;
#X connect 39 0 4 0;
#X connect 40 0 11 0;
#X connect 41 0 17 0;
#X connect 42 0 7 0;
#X connect 43 0 22 0;
#X connect 49 0 50 0;
#X connect 50 0 27 1;
#X connect 51 0 52 0;
#X connect 52 0 23 1;
#X connect 53 0 54 0;
#X connect 54 0 28 0;
#X connect 54 0 51 0;
#X connect 55 0 56 0;
#X connect 56 0 9 0;
#X coords 0 -1 1 1 210 130 2 310 310;
