#N canvas 2030 66 785 638 12;
#X obj 99 456 mother-32;
#X obj 96 48 ctlin;
#X obj 105 94 pack f f f;
#X obj 102 132 route 1;
#X obj 86 167 route 0 1 2 3 4 5 6 7 8 9 10 11 12 13 14 15 16;
#X obj 89 327 parse-microctl;
#X floatatom 101 366 13 0 0 0 - - - 0;
#X obj 10 196 loadbang;
#X msg 15 229 0.01;
#X obj 20 264 loadbang;
#X msg 34 293 0.0001;
#X obj 219 330 parse-microctl;
#X floatatom 224 371 5 0 0 0 - - - 0;
#X obj 15 141 loadbang;
#X msg 10 166 0.1;
#X connect 1 0 2 2;
#X connect 1 1 2 1;
#X connect 1 2 2 0;
#X connect 2 0 3 0;
#X connect 3 0 4 0;
#X connect 4 0 5 0;
#X connect 4 1 11 0;
#X connect 4 4 5 1;
#X connect 4 5 11 1;
#X connect 5 0 6 0;
#X connect 6 0 0 0;
#X connect 7 0 8 0;
#X connect 8 0 5 5;
#X connect 8 0 11 6;
#X connect 9 0 10 0;
#X connect 10 0 5 6;
#X connect 11 0 12 0;
#X connect 12 0 0 1;
#X connect 13 0 14 0;
#X connect 14 0 11 5;
