#N canvas 1347 291 864 924 12;
#X obj 155 348 bob~;
#X obj 68 277 phasor~;
#X floatatom 86 155 5 0 0 0 - - - 0;
#X obj 85 415 dac~ 1;
#X obj 87 179 pack f 500;
#X obj 87 205 line~;
#X obj 88 108 hsl 170 20 -1 1 0 0 empty empty empty -2 -10 0 12 #fcfcfc #000000 #000000 0 1;
#N canvas 1127 619 450 300 cv-to-freq 1;
#X obj 27 26 inlet~;
#X obj 29 94 outlet~;
#X restore 82 236 pd cv-to-freq;
#X connect 0 0 3 0;
#X connect 1 0 0 0;
#X connect 1 0 3 0;
#X connect 2 0 4 0;
#X connect 4 0 5 0;
#X connect 5 0 7 0;
#X connect 6 0 2 0;
#X connect 7 0 1 0;
