#N canvas 2435 769 609 396 12;
#X obj 22 30 inlet;
#X obj 67 30 inlet;
#X obj 113 30 inlet;
#X obj 157 30 inlet;
#X floatatom 221 187 5 0 0 0 - - - 0;
#X obj 223 28 inlet;
#X obj 22 62 t f b;
#X obj 52 190 +;
#X obj 22 88 - 64;
#X msg 101 223 set \$1;
#X obj 46 284 outlet;
#X obj 67 62 t f b;
#X obj 67 88 - 64;
#X obj 67 113 * 0.1;
#X obj 22 112 * 1;
#X obj 116 63 t f b;
#X obj 116 89 - 64;
#X obj 116 114 * 0.01;
#X obj 166 63 t f b;
#X obj 166 89 - 64;
#X obj 166 114 * 0.001;
#X obj 292 28 inlet;
#X obj 334 28 inlet;
#X obj 376 28 inlet;
#X obj 418 28 inlet;
#X connect 0 0 6 0;
#X connect 1 0 11 0;
#X connect 2 0 15 0;
#X connect 3 0 18 0;
#X connect 4 0 7 1;
#X connect 5 0 4 0;
#X connect 6 0 8 0;
#X connect 6 1 4 0;
#X connect 7 0 10 0;
#X connect 7 0 9 0;
#X connect 8 0 14 0;
#X connect 9 0 4 0;
#X connect 11 0 12 0;
#X connect 11 1 4 0;
#X connect 12 0 13 0;
#X connect 13 0 7 0;
#X connect 14 0 7 0;
#X connect 15 0 16 0;
#X connect 15 1 4 0;
#X connect 16 0 17 0;
#X connect 17 0 7 0;
#X connect 18 0 19 0;
#X connect 18 1 4 0;
#X connect 19 0 20 0;
#X connect 20 0 7 0;
#X connect 21 0 14 1;
#X connect 22 0 13 1;
#X connect 23 0 17 1;
#X connect 24 0 20 1;
